+ filenameToUse=/home/horvathandras/vatic/vatic/public/videouploads/DJI_0042_ragasok_jelolve_vaskut_20190601_diffuz_napraforgo_T1.avi
+ filenameNoDot=DJI_0042_ragasok_jelolve_vaskut_20190601_diffuz_napraforgo_T1
+ FullUploadPath=/home/horvathandras/vatic/vatic/public/videouploads/DJI_0042_ragasok_jelolve_vaskut_20190601_diffuz_napraforgo_T1.avi
+ VideoDataDir=/home/horvathandras/vatic/vatic/videos
+ AvailableObjectTypes='PozitívROI NegatívROI Túrás ~Friss ~1-2Hetes ~Régebbi ~Egyéb1 ~Egyéb2 ~Egyéb3 Rágás ~Friss ~1-2Hetes ~Régebbi ~Egyéb1 ~Egyéb2 ~Egyéb3 Törés ~Friss ~1-2Hetes ~Régebbi ~Egyéb1 ~Egyéb2 ~Egyéb3 Taposás ~Friss ~1-2Hetes ~Régebbi ~Egyéb1 ~Egyéb2 ~Egyéb3 EgészségesNövény Egyéb1 Egyéb2 Egyéb3 Egyéb4 Egyéb5 Bizonytalan Művelőút Gktaposás Vetőhiba Széldöntés Jégkár Belvíz Aszály Erózió EgyszikűGyom KétszikűGyom EgyébNövvédelmiPR'
++ dirname /home/horvathandras/vatic/vatic/vatic_publisher.sh
+ cd /home/horvathandras/vatic/vatic
+ touch /home/horvathandras/vatic/vatic/public/videouploads/DJI_0042_ragasok_jelolve_vaskut_20190601_diffuz_napraforgo_T1.avi
+ chmod 744 /home/horvathandras/vatic/vatic/public/videouploads/DJI_0042_ragasok_jelolve_vaskut_20190601_diffuz_napraforgo_T1.avi
+ mkdir /home/horvathandras/vatic/vatic/videos/DJI_0042_ragasok_jelolve_vaskut_20190601_diffuz_napraforgo_T1
+ turkic extract /home/horvathandras/vatic/vatic/public/videouploads/DJI_0042_ragasok_jelolve_vaskut_20190601_diffuz_napraforgo_T1.avi /home/horvathandras/vatic/vatic/videos/DJI_0042_ragasok_jelolve_vaskut_20190601_diffuz_napraforgo_T1 --no-resize
ffmpeg version 2.8.14-0ubuntu0.16.04.1 Copyright (c) 2000-2018 the FFmpeg developers
  built with gcc 5.4.0 (Ubuntu 5.4.0-6ubuntu1~16.04.9) 20160609
  configuration: --prefix=/usr --extra-version=0ubuntu0.16.04.1 --build-suffix=-ffmpeg --toolchain=hardened --libdir=/usr/lib/x86_64-linux-gnu --incdir=/usr/include/x86_64-linux-gnu --cc=cc --cxx=g++ --enable-gpl --enable-shared --disable-stripping --disable-decoder=libopenjpeg --disable-decoder=libschroedinger --enable-avresample --enable-avisynth --enable-gnutls --enable-ladspa --enable-libass --enable-libbluray --enable-libbs2b --enable-libcaca --enable-libcdio --enable-libflite --enable-libfontconfig --enable-libfreetype --enable-libfribidi --enable-libgme --enable-libgsm --enable-libmodplug --enable-libmp3lame --enable-libopenjpeg --enable-libopus --enable-libpulse --enable-librtmp --enable-libschroedinger --enable-libshine --enable-libsnappy --enable-libsoxr --enable-libspeex --enable-libssh --enable-libtheora --enable-libtwolame --enable-libvorbis --enable-libvpx --enable-libwavpack --enable-libwebp --enable-libx265 --enable-libxvid --enable-libzvbi --enable-openal --enable-opengl --enable-x11grab --enable-libdc1394 --enable-libiec61883 --enable-libzmq --enable-frei0r --enable-libx264 --enable-libopencv
  libavutil      54. 31.100 / 54. 31.100
  libavcodec     56. 60.100 / 56. 60.100
  libavformat    56. 40.101 / 56. 40.101
  libavdevice    56.  4.100 / 56.  4.100
  libavfilter     5. 40.101 /  5. 40.101
  libavresample   2.  1.  0 /  2.  1.  0
  libswscale      3.  1.101 /  3.  1.101
  libswresample   1.  2.101 /  1.  2.101
  libpostproc    53.  3.100 / 53.  3.100
Input #0, mov,mp4,m4a,3gp,3g2,mj2, from '/home/horvathandras/vatic/vatic/public/videouploads/DJI_0042_ragasok_jelolve_vaskut_20190601_diffuz_napraforgo_T1.avi':
  Metadata:
    major_brand     : qt  
    minor_version   : 537986816
    compatible_brands: qt  
    creation_time   : 2019-06-01 07:57:59
    location        : +46.088282+18.993876+30.700
    location-{    : +46.088282+18.993876+30.700
    comment         : DE=D-Cinelike, Mode=P, DSW=0001
  Duration: 00:00:04.80, start: 0.000000, bitrate: 102983 kb/s
    Stream #0:0(eng): Video: h264 (High) (avc1 / 0x31637661), yuv420p(tv, bt709), 4096x2160 [SAR 1:1 DAR 256:135], 102469 kb/s, 50 fps, 50 tbr, 50k tbn, 100 tbc (default)
    Metadata:
      creation_time   : 2019-06-01 07:57:59
      handler_name    : DJI.AVC
      encoder         : AVC encoder
    Stream #0:1(eng): Data: none (priv / 0x76697270), 404 kb/s
    Metadata:
      creation_time   : 2019-06-01 07:57:59
      handler_name    : DJI.Meta
Please use -b:a or -b:v, -b is ambiguous
[swscaler @ 0xa8bc40] deprecated pixel format used, make sure you did set range correctly
Output #0, image2, to '/tmp/pyvision-ffmpeg-932628246/%d.jpg':
  Metadata:
    major_brand     : qt  
    minor_version   : 537986816
    compatible_brands: qt  
    comment         : DE=D-Cinelike, Mode=P, DSW=0001
    location        : +46.088282+18.993876+30.700
    location-{    : +46.088282+18.993876+30.700
    encoder         : Lavf56.40.101
    Stream #0:0(eng): Video: mjpeg, yuvj420p(pc), 4096x2160 [SAR 1:1 DAR 256:135], q=2-31, 10000 kb/s, 50 fps, 50 tbn, 50 tbc (default)
    Metadata:
      creation_time   : 2019-06-01 07:57:59
      handler_name    : DJI.AVC
      encoder         : Lavc56.60.100 mjpeg
Stream mapping:
  Stream #0:0 -> #0:0 (h264 (native) -> mjpeg (native))
Press [q] to stop, [?] for help
frame=    1 fps=0.0 q=12.7 size=N/A time=00:00:00.02 bitrate=N/A    frame=    5 fps=4.0 q=22.2 size=N/A time=00:00:00.10 bitrate=N/A    frame=   10 fps=5.4 q=24.8 size=N/A time=00:00:00.20 bitrate=N/A    frame=   14 fps=5.8 q=24.8 size=N/A time=00:00:00.28 bitrate=N/A    frame=   19 fps=6.4 q=24.8 size=N/A time=00:00:00.38 bitrate=N/A    frame=   23 fps=6.6 q=24.8 size=N/A time=00:00:00.46 bitrate=N/A    frame=   28 fps=6.9 q=24.8 size=N/A time=00:00:00.56 bitrate=N/A    frame=   31 fps=6.8 q=24.8 size=N/A time=00:00:00.62 bitrate=N/A    frame=   37 fps=7.1 q=24.8 size=N/A time=00:00:00.74 bitrate=N/A    frame=   42 fps=7.3 q=24.8 size=N/A time=00:00:00.84 bitrate=N/A    frame=   47 fps=7.4 q=24.8 size=N/A time=00:00:00.94 bitrate=N/A    frame=   52 fps=7.5 q=24.8 size=N/A time=00:00:01.04 bitrate=N/A    frame=   56 fps=7.5 q=24.8 size=N/A time=00:00:01.12 bitrate=N/A    frame=   61 fps=7.6 q=24.8 size=N/A time=00:00:01.22 bitrate=N/A    frame=   66 fps=7.6 q=24.8 size=N/A time=00:00:01.32 bitrate=N/A    frame=   71 fps=7.7 q=24.8 size=N/A time=00:00:01.42 bitrate=N/A    frame=   76 fps=7.8 q=24.8 size=N/A time=00:00:01.52 bitrate=N/A    frame=   81 fps=7.8 q=24.8 size=N/A time=00:00:01.62 bitrate=N/A    frame=   86 fps=7.8 q=24.8 size=N/A time=00:00:01.72 bitrate=N/A    frame=   90 fps=7.8 q=24.8 size=N/A time=00:00:01.80 bitrate=N/A    frame=   95 fps=7.9 q=24.8 size=N/A time=00:00:01.90 bitrate=N/A    frame=   99 fps=7.8 q=24.8 size=N/A time=00:00:01.98 bitrate=N/A    frame=  104 fps=7.9 q=24.8 size=N/A time=00:00:02.08 bitrate=N/A    frame=  109 fps=7.9 q=24.8 size=N/A time=00:00:02.18 bitrate=N/A    frame=  114 fps=7.9 q=24.8 size=N/A time=00:00:02.28 bitrate=N/A    frame=  119 fps=7.9 q=24.8 size=N/A time=00:00:02.38 bitrate=N/A    frame=  123 fps=7.9 q=24.8 size=N/A time=00:00:02.46 bitrate=N/A    frame=  129 fps=8.0 q=24.8 size=N/A time=00:00:02.58 bitrate=N/A    frame=  133 fps=8.0 q=24.8 size=N/A time=00:00:02.66 bitrate=N/A    frame=  137 fps=8.0 q=24.8 size=N/A time=00:00:02.74 bitrate=N/A    frame=  141 fps=7.9 q=24.8 size=N/A time=00:00:02.82 bitrate=N/A    frame=  145 fps=7.9 q=24.8 size=N/A time=00:00:02.90 bitrate=N/A    frame=  150 fps=7.9 q=24.8 size=N/A time=00:00:03.00 bitrate=N/A    frame=  154 fps=7.9 q=24.8 size=N/A time=00:00:03.08 bitrate=N/A    frame=  160 fps=7.9 q=24.8 size=N/A time=00:00:03.20 bitrate=N/A    frame=  164 fps=7.9 q=24.8 size=N/A time=00:00:03.28 bitrate=N/A    frame=  169 fps=7.9 q=24.8 size=N/A time=00:00:03.38 bitrate=N/A    frame=  174 fps=7.9 q=24.8 size=N/A time=00:00:03.48 bitrate=N/A    frame=  179 fps=7.9 q=24.8 size=N/A time=00:00:03.58 bitrate=N/A    frame=  183 fps=7.9 q=24.8 size=N/A time=00:00:03.66 bitrate=N/A    frame=  187 fps=7.9 q=24.8 size=N/A time=00:00:03.74 bitrate=N/A    frame=  192 fps=7.9 q=24.8 size=N/A time=00:00:03.84 bitrate=N/A    frame=  197 fps=7.9 q=24.8 size=N/A time=00:00:03.94 bitrate=N/A    frame=  201 fps=7.9 q=24.8 size=N/A time=00:00:04.02 bitrate=N/A    frame=  205 fps=7.9 q=24.8 size=N/A time=00:00:04.10 bitrate=N/A    frame=  210 fps=7.9 q=24.8 size=N/A time=00:00:04.20 bitrate=N/A    frame=  215 fps=7.9 q=24.8 size=N/A time=00:00:04.30 bitrate=N/A    frame=  220 fps=7.9 q=24.8 size=N/A time=00:00:04.40 bitrate=N/A    frame=  225 fps=7.9 q=24.8 size=N/A time=00:00:04.50 bitrate=N/A    frame=  230 fps=7.9 q=24.8 size=N/A time=00:00:04.60 bitrate=N/A    frame=  235 fps=7.9 q=24.8 size=N/A time=00:00:04.70 bitrate=N/A    frame=  240 fps=7.9 q=24.8 size=N/A time=00:00:04.80 bitrate=N/A    frame=  240 fps=7.9 q=24.8 Lsize=N/A time=00:00:04.80 bitrate=N/A    
video:100752kB audio:0kB subtitle:0kB other streams:0kB global headers:0kB muxing overhead: unknown
+ turkic load DJI_0042_ragasok_jelolve_vaskut_20190601_diffuz_napraforgo_T1 /home/horvathandras/vatic/vatic/videos/DJI_0042_ragasok_jelolve_vaskut_20190601_diffuz_napraforgo_T1 $'Pozit\303\255vROI' $'Negat\303\255vROI' $'T\303\272r\303\241s' '~Friss' '~1-2Hetes' '~Régebbi' '~Egyéb1' '~Egyéb2' '~Egyéb3' $'R\303\241g\303\241s' '~Friss' '~1-2Hetes' '~Régebbi' '~Egyéb1' '~Egyéb2' '~Egyéb3' $'T\303\266r\303\251s' '~Friss' '~1-2Hetes' '~Régebbi' '~Egyéb1' '~Egyéb2' '~Egyéb3' $'Tapos\303\241s' '~Friss' '~1-2Hetes' '~Régebbi' '~Egyéb1' '~Egyéb2' '~Egyéb3' $'Eg\303\251szs\303\251gesN\303\266v\303\251ny' $'Egy\303\251b1' $'Egy\303\251b2' $'Egy\303\251b3' $'Egy\303\251b4' $'Egy\303\251b5' Bizonytalan $'M\305\261vel\305\221\303\272t' $'Gktapos\303\241s' $'Vet\305\221hiba' $'Sz\303\251ld\303\266nt\303\251s' $'J\303\251gk\303\241r' $'Belv\303\255z' $'Asz\303\241ly' $'Er\303\263zi\303\263' $'Egyszik\305\261Gyom' $'K\303\251tszik\305\261Gyom' $'Egy\303\251bN\303\266vv\303\251delmiPR' --offline --title '$filenameNoDot Video' --length 1000 --description 'vatic annotation'
+ turkic publish --offline
+ mkdir /home/horvathandras/vatic/vatic/public/videothumbnails/DJI_0042_ragasok_jelolve_vaskut_20190601_diffuz_napraforgo_T1
+ cp /home/horvathandras/vatic/vatic/videos/DJI_0042_ragasok_jelolve_vaskut_20190601_diffuz_napraforgo_T1/0/0/31.jpg /home/horvathandras/vatic/vatic/public/videothumbnails/DJI_0042_ragasok_jelolve_vaskut_20190601_diffuz_napraforgo_T1/thumb.jpg
